<mxfile host="app.diagrams.net" modified="2023-12-04T04:15:33.762Z" agent="Mozilla/5.0 (Macintosh; Intel Mac OS X 10_15_7) AppleWebKit/537.36 (KHTML, like Gecko) Chrome/118.0.0.0 Safari/537.36" version="22.1.5" etag="RV1zXRfCmXbPS-3bXSDj" type="github">
  <diagram name="第 1 页" id="K1OEMXcCuibiKlHLb9PJ">
    <mxGraphModel>
      <root>
        <mxCell id="0" />
        <mxCell id="1" parent="0" />
      </root>
    </mxGraphModel>
  </diagram>
</mxfile>
